<svg xmlns="http://www.w3.org/2000/svg" width="126.8" height="121.96" viewBox="0 0 126.8 121.96">
  <title>forcus</title>
  <path d="M126.27,47.06a9.94,9.94,0,0,0-8.18-7.18L86.71,34.4l-14-28.46A10.22,10.22,0,0,0,63.44,0a10.46,10.46,0,0,0-9.22,5.87l-14,28.53L8.86,40.1A10.17,10.17,0,0,0,.39,47.3,11.19,11.19,0,0,0,3.21,58L25.76,79l-5.91,30.64a10.54,10.54,0,0,0,4.07,10.25,10.23,10.23,0,0,0,10.76.8l28.76-14.28L92,120.7A11.32,11.32,0,0,0,96.82,122a9.23,9.23,0,0,0,5.92-2,10.36,10.36,0,0,0,4.08-10.23L101.13,79l22.58-21.27A10.41,10.41,0,0,0,126.27,47.06ZM39.07,74.68,14.27,51.56l34.17-6.21,15-30.48,15,30.52,34.15,6L87.86,74.68l6.2,33.37-30.6-15.3-30.83,15.3Z"/>
</svg>
